<?xml version="1.0" encoding="UTF-8" standalone="no"?>
<!DOCTYPE svg PUBLIC "-//W3C//DTD SVG 1.1//EN"
 "http://www.w3.org/Graphics/SVG/1.1/DTD/svg11.dtd">
<!-- Generated by graphviz version 12.1.2 (20240928.0832)
 -->
<!-- Title: G Pages: 1 -->
<svg width="2523pt" height="1332pt"
 viewBox="0.00 0.00 2522.75 1332.00" xmlns="http://www.w3.org/2000/svg" xmlns:xlink="http://www.w3.org/1999/xlink">
<g id="graph0" class="graph" transform="scale(1 1) rotate(0) translate(4 1328)">
<title>G</title>
<polygon fill="white" stroke="none" points="-4,4 -4,-1328 2518.75,-1328 2518.75,4 -4,4"/>
<!-- data.aws_ami.ubuntu -->
<g id="node1" class="node">
<title>data.aws_ami.ubuntu</title>
<polygon fill="none" stroke="black" points="399.12,-800 254.12,-800 254.12,-764 399.12,-764 399.12,-800"/>
<text text-anchor="middle" x="326.62" y="-776.2" font-family="sans-serif" font-size="14.00">data.aws_ami.ubuntu</text>
</g>
<!-- data.external.get_argocd_password -->
<g id="node2" class="node">
<title>data.external.get_argocd_password</title>
<polygon fill="none" stroke="black" points="2039.5,-576 1809,-576 1809,-540 2039.5,-540 2039.5,-576"/>
<text text-anchor="middle" x="1924.25" y="-552.2" font-family="sans-serif" font-size="14.00">data.external.get_argocd_password</text>
</g>
<!-- null_resource.install_argocd -->
<g id="node35" class="node">
<title>null_resource.install_argocd</title>
<polygon fill="none" stroke="black" points="1695.75,-576 1511.75,-576 1511.75,-540 1695.75,-540 1695.75,-576"/>
<text text-anchor="middle" x="1603.75" y="-552.2" font-family="sans-serif" font-size="14.00">null_resource.install_argocd</text>
</g>
<!-- data.external.get_argocd_password&#45;&gt;null_resource.install_argocd -->
<g id="edge1" class="edge">
<title>data.external.get_argocd_password&#45;&gt;null_resource.install_argocd</title>
<path fill="none" stroke="black" d="M1808.71,-558C1775.61,-558 1739.7,-558 1707.37,-558"/>
<polygon fill="black" stroke="black" points="1707.61,-554.5 1697.61,-558 1707.61,-561.5 1707.61,-554.5"/>
</g>
<!-- data.external.get_dashboard_token -->
<g id="node3" class="node">
<title>data.external.get_dashboard_token</title>
<polygon fill="none" stroke="black" points="2038.38,-630 1810.12,-630 1810.12,-594 2038.38,-594 2038.38,-630"/>
<text text-anchor="middle" x="1924.25" y="-606.2" font-family="sans-serif" font-size="14.00">data.external.get_dashboard_token</text>
</g>
<!-- null_resource.create_dashboard_user -->
<g id="node31" class="node">
<title>null_resource.create_dashboard_user</title>
<polygon fill="none" stroke="black" points="1725.38,-630 1482.12,-630 1482.12,-594 1725.38,-594 1725.38,-630"/>
<text text-anchor="middle" x="1603.75" y="-606.2" font-family="sans-serif" font-size="14.00">null_resource.create_dashboard_user</text>
</g>
<!-- data.external.get_dashboard_token&#45;&gt;null_resource.create_dashboard_user -->
<g id="edge2" class="edge">
<title>data.external.get_dashboard_token&#45;&gt;null_resource.create_dashboard_user</title>
<path fill="none" stroke="black" d="M1810.06,-612C1786.45,-612 1761.35,-612 1737.11,-612"/>
<polygon fill="black" stroke="black" points="1737.18,-608.5 1727.18,-612 1737.18,-615.5 1737.18,-608.5"/>
</g>
<!-- data.external.get_grafana_admin_password -->
<g id="node4" class="node">
<title>data.external.get_grafana_admin_password</title>
<polygon fill="none" stroke="black" points="2064.25,-252 1784.25,-252 1784.25,-216 2064.25,-216 2064.25,-252"/>
<text text-anchor="middle" x="1924.25" y="-228.2" font-family="sans-serif" font-size="14.00">data.external.get_grafana_admin_password</text>
</g>
<!-- null_resource.install_grafana -->
<g id="node41" class="node">
<title>null_resource.install_grafana</title>
<polygon fill="none" stroke="black" points="1698,-252 1509.5,-252 1509.5,-216 1698,-216 1698,-252"/>
<text text-anchor="middle" x="1603.75" y="-228.2" font-family="sans-serif" font-size="14.00">null_resource.install_grafana</text>
</g>
<!-- data.external.get_grafana_admin_password&#45;&gt;null_resource.install_grafana -->
<g id="edge3" class="edge">
<title>data.external.get_grafana_admin_password&#45;&gt;null_resource.install_grafana</title>
<path fill="none" stroke="black" d="M1784.01,-234C1759.13,-234 1733.58,-234 1709.85,-234"/>
<polygon fill="black" stroke="black" points="1709.87,-230.5 1699.87,-234 1709.87,-237.5 1709.87,-230.5"/>
</g>
<!-- data.external.get_ingress -->
<g id="node5" class="node">
<title>data.external.get_ingress</title>
<polygon fill="none" stroke="black" points="2503.88,-441 2336.38,-441 2336.38,-405 2503.88,-405 2503.88,-441"/>
<text text-anchor="middle" x="2420.12" y="-417.2" font-family="sans-serif" font-size="14.00">data.external.get_ingress</text>
</g>
<!-- null_resource.create_ingress -->
<g id="node32" class="node">
<title>null_resource.create_ingress</title>
<polygon fill="none" stroke="black" points="2289.5,-414 2100.25,-414 2100.25,-378 2289.5,-378 2289.5,-414"/>
<text text-anchor="middle" x="2194.88" y="-390.2" font-family="sans-serif" font-size="14.00">null_resource.create_ingress</text>
</g>
<!-- data.external.get_ingress&#45;&gt;null_resource.create_ingress -->
<g id="edge4" class="edge">
<title>data.external.get_ingress&#45;&gt;null_resource.create_ingress</title>
<path fill="none" stroke="black" d="M2335.99,-412.95C2324.63,-411.57 2312.84,-410.15 2301.14,-408.73"/>
<polygon fill="black" stroke="black" points="2301.82,-405.29 2291.47,-407.56 2300.98,-412.24 2301.82,-405.29"/>
</g>
<!-- data.external.get_kibana_password -->
<g id="node6" class="node">
<title>data.external.get_kibana_password</title>
<polygon fill="none" stroke="black" points="2038.75,-306 1809.75,-306 1809.75,-270 2038.75,-270 2038.75,-306"/>
<text text-anchor="middle" x="1924.25" y="-282.2" font-family="sans-serif" font-size="14.00">data.external.get_kibana_password</text>
</g>
<!-- null_resource.install_efk -->
<g id="node40" class="node">
<title>null_resource.install_efk</title>
<polygon fill="none" stroke="black" points="1684.12,-306 1523.38,-306 1523.38,-270 1684.12,-270 1684.12,-306"/>
<text text-anchor="middle" x="1603.75" y="-282.2" font-family="sans-serif" font-size="14.00">null_resource.install_efk</text>
</g>
<!-- data.external.get_kibana_password&#45;&gt;null_resource.install_efk -->
<g id="edge5" class="edge">
<title>data.external.get_kibana_password&#45;&gt;null_resource.install_efk</title>
<path fill="none" stroke="black" d="M1809.61,-288C1772.21,-288 1731.15,-288 1695.67,-288"/>
<polygon fill="black" stroke="black" points="1695.87,-284.5 1685.87,-288 1695.87,-291.5 1695.87,-284.5"/>
</g>
<!-- data.external.get_kubeadm_join_command -->
<g id="node7" class="node">
<title>data.external.get_kubeadm_join_command</title>
<polygon fill="none" stroke="black" points="1742.25,-792 1465.25,-792 1465.25,-756 1742.25,-756 1742.25,-792"/>
<text text-anchor="middle" x="1603.75" y="-768.2" font-family="sans-serif" font-size="14.00">data.external.get_kubeadm_join_command</text>
</g>
<!-- null_resource.get_kubeadm_join_command -->
<g id="node33" class="node">
<title>null_resource.get_kubeadm_join_command</title>
<polygon fill="none" stroke="black" points="1423.25,-792 1143.25,-792 1143.25,-756 1423.25,-756 1423.25,-792"/>
<text text-anchor="middle" x="1283.25" y="-768.2" font-family="sans-serif" font-size="14.00">null_resource.get_kubeadm_join_command</text>
</g>
<!-- data.external.get_kubeadm_join_command&#45;&gt;null_resource.get_kubeadm_join_command -->
<g id="edge6" class="edge">
<title>data.external.get_kubeadm_join_command&#45;&gt;null_resource.get_kubeadm_join_command</title>
<path fill="none" stroke="black" d="M1464.9,-774C1454.95,-774 1444.88,-774 1434.86,-774"/>
<polygon fill="black" stroke="black" points="1435.08,-770.5 1425.08,-774 1435.08,-777.5 1435.08,-770.5"/>
</g>
<!-- data.http.myip -->
<g id="node8" class="node">
<title>data.http.myip</title>
<polygon fill="none" stroke="black" points="377.38,-1137 275.88,-1137 275.88,-1101 377.38,-1101 377.38,-1137"/>
<text text-anchor="middle" x="326.62" y="-1113.2" font-family="sans-serif" font-size="14.00">data.http.myip</text>
</g>
<!-- aws_instance.controller -->
<g id="node9" class="node">
<title>aws_instance.controller</title>
<polygon fill="none" stroke="black" points="710.62,-746 553.62,-746 553.62,-710 710.62,-710 710.62,-746"/>
<text text-anchor="middle" x="632.12" y="-722.2" font-family="sans-serif" font-size="14.00">aws_instance.controller</text>
</g>
<!-- aws_instance.controller&#45;&gt;data.aws_ami.ubuntu -->
<g id="edge7" class="edge">
<title>aws_instance.controller&#45;&gt;data.aws_ami.ubuntu</title>
<path fill="none" stroke="black" d="M553.47,-738.85C522.53,-743.43 486.64,-749.08 454.25,-755 440.07,-757.59 425.04,-760.58 410.48,-763.6"/>
<polygon fill="black" stroke="black" points="410.01,-760.13 400.95,-765.61 411.45,-766.98 410.01,-760.13"/>
</g>
<!-- aws_key_pair.key_pair -->
<g id="node12" class="node">
<title>aws_key_pair.key_pair</title>
<polygon fill="none" stroke="black" points="403.25,-746 250,-746 250,-710 403.25,-710 403.25,-746"/>
<text text-anchor="middle" x="326.62" y="-722.2" font-family="sans-serif" font-size="14.00">aws_key_pair.key_pair</text>
</g>
<!-- aws_instance.controller&#45;&gt;aws_key_pair.key_pair -->
<g id="edge8" class="edge">
<title>aws_instance.controller&#45;&gt;aws_key_pair.key_pair</title>
<path fill="none" stroke="black" d="M553.36,-728C511.12,-728 458.75,-728 415.09,-728"/>
<polygon fill="black" stroke="black" points="415.13,-724.5 405.13,-728 415.13,-731.5 415.13,-724.5"/>
</g>
<!-- aws_security_group.main -->
<g id="node18" class="node">
<title>aws_security_group.main</title>
<polygon fill="none" stroke="black" points="411.5,-1056 241.75,-1056 241.75,-1020 411.5,-1020 411.5,-1056"/>
<text text-anchor="middle" x="326.62" y="-1032.2" font-family="sans-serif" font-size="14.00">aws_security_group.main</text>
</g>
<!-- aws_instance.controller&#45;&gt;aws_security_group.main -->
<g id="edge9" class="edge">
<title>aws_instance.controller&#45;&gt;aws_security_group.main</title>
<path fill="none" stroke="black" d="M553.23,-722.64C519.37,-724.33 481.33,-732.18 454.25,-755 415.56,-787.61 437.94,-816.39 418.25,-863 395.68,-916.41 363.28,-975.8 343.95,-1009.84"/>
<polygon fill="black" stroke="black" points="341.07,-1007.82 339.15,-1018.24 347.15,-1011.3 341.07,-1007.82"/>
</g>
<!-- aws_subnet.main -->
<g id="node19" class="node">
<title>aws_subnet.main</title>
<polygon fill="none" stroke="black" points="387.5,-854 265.75,-854 265.75,-818 387.5,-818 387.5,-854"/>
<text text-anchor="middle" x="326.62" y="-830.2" font-family="sans-serif" font-size="14.00">aws_subnet.main</text>
</g>
<!-- aws_instance.controller&#45;&gt;aws_subnet.main -->
<g id="edge10" class="edge">
<title>aws_instance.controller&#45;&gt;aws_subnet.main</title>
<path fill="none" stroke="black" d="M553.16,-726.35C520.45,-728.94 483.33,-736.48 454.25,-755 429.92,-770.5 441.45,-791.86 418.25,-809 412.22,-813.46 405.45,-817.18 398.41,-820.3"/>
<polygon fill="black" stroke="black" points="397.36,-816.95 389.34,-823.88 399.93,-823.46 397.36,-816.95"/>
</g>
<!-- aws_instance.worker -->
<g id="node10" class="node">
<title>aws_instance.worker</title>
<polygon fill="none" stroke="black" points="703.12,-800 561.12,-800 561.12,-764 703.12,-764 703.12,-800"/>
<text text-anchor="middle" x="632.12" y="-776.2" font-family="sans-serif" font-size="14.00">aws_instance.worker</text>
</g>
<!-- aws_instance.worker&#45;&gt;data.aws_ami.ubuntu -->
<g id="edge11" class="edge">
<title>aws_instance.worker&#45;&gt;data.aws_ami.ubuntu</title>
<path fill="none" stroke="black" d="M560.73,-782C516,-782 457.88,-782 410.87,-782"/>
<polygon fill="black" stroke="black" points="410.99,-778.5 400.99,-782 410.99,-785.5 410.99,-778.5"/>
</g>
<!-- aws_instance.worker&#45;&gt;aws_key_pair.key_pair -->
<g id="edge12" class="edge">
<title>aws_instance.worker&#45;&gt;aws_key_pair.key_pair</title>
<path fill="none" stroke="black" d="M560.82,-772.23C528.31,-767.47 489.24,-761.39 454.25,-755 441.38,-752.65 427.82,-749.97 414.54,-747.23"/>
<polygon fill="black" stroke="black" points="415.46,-743.85 404.96,-745.24 414.04,-750.71 415.46,-743.85"/>
</g>
<!-- aws_instance.worker&#45;&gt;aws_security_group.main -->
<g id="edge13" class="edge">
<title>aws_instance.worker&#45;&gt;aws_security_group.main</title>
<path fill="none" stroke="black" d="M560.73,-778.7C525.95,-780.36 484.96,-787.6 454.25,-809 445,-815.45 373.91,-949.68 342.48,-1009.58"/>
<polygon fill="black" stroke="black" points="339.52,-1007.69 337.98,-1018.18 345.72,-1010.94 339.52,-1007.69"/>
</g>
<!-- aws_instance.worker&#45;&gt;aws_subnet.main -->
<g id="edge14" class="edge">
<title>aws_instance.worker&#45;&gt;aws_subnet.main</title>
<path fill="none" stroke="black" d="M560.82,-791.77C528.31,-796.53 489.24,-802.61 454.25,-809 436.21,-812.3 416.82,-816.23 398.75,-820.07"/>
<polygon fill="black" stroke="black" points="398.23,-816.6 389.19,-822.12 399.7,-823.45 398.23,-816.6"/>
</g>
<!-- aws_internet_gateway.main -->
<g id="node11" class="node">
<title>aws_internet_gateway.main</title>
<polygon fill="none" stroke="black" points="418.25,-1304 235,-1304 235,-1268 418.25,-1268 418.25,-1304"/>
<text text-anchor="middle" x="326.62" y="-1280.2" font-family="sans-serif" font-size="14.00">aws_internet_gateway.main</text>
</g>
<!-- aws_vpc.main -->
<g id="node20" class="node">
<title>aws_vpc.main</title>
<polygon fill="none" stroke="black" points="150.62,-1110 48.38,-1110 48.38,-1074 150.62,-1074 150.62,-1110"/>
<text text-anchor="middle" x="99.5" y="-1086.2" font-family="sans-serif" font-size="14.00">aws_vpc.main</text>
</g>
<!-- aws_internet_gateway.main&#45;&gt;aws_vpc.main -->
<g id="edge15" class="edge">
<title>aws_internet_gateway.main&#45;&gt;aws_vpc.main</title>
<path fill="none" stroke="black" d="M282.73,-1267.61C266.99,-1259.89 249.49,-1250.11 235,-1239 188.73,-1203.52 145.08,-1151.03 120.66,-1119.32"/>
<polygon fill="black" stroke="black" points="123.47,-1117.23 114.63,-1111.39 117.9,-1121.47 123.47,-1117.23"/>
</g>
<!-- tls_private_key.tls_private_key -->
<g id="node52" class="node">
<title>tls_private_key.tls_private_key</title>
<polygon fill="none" stroke="black" points="199,-746 0,-746 0,-710 199,-710 199,-746"/>
<text text-anchor="middle" x="99.5" y="-722.2" font-family="sans-serif" font-size="14.00">tls_private_key.tls_private_key</text>
</g>
<!-- aws_key_pair.key_pair&#45;&gt;tls_private_key.tls_private_key -->
<g id="edge16" class="edge">
<title>aws_key_pair.key_pair&#45;&gt;tls_private_key.tls_private_key</title>
<path fill="none" stroke="black" d="M249.72,-728C237.06,-728 223.7,-728 210.39,-728"/>
<polygon fill="black" stroke="black" points="210.75,-724.5 200.75,-728 210.75,-731.5 210.75,-724.5"/>
</g>
<!-- aws_lb.main -->
<g id="node13" class="node">
<title>aws_lb.main</title>
<polygon fill="none" stroke="black" points="678,-854 586.25,-854 586.25,-818 678,-818 678,-854"/>
<text text-anchor="middle" x="632.12" y="-830.2" font-family="sans-serif" font-size="14.00">aws_lb.main</text>
</g>
<!-- aws_lb.main&#45;&gt;aws_subnet.main -->
<g id="edge17" class="edge">
<title>aws_lb.main&#45;&gt;aws_subnet.main</title>
<path fill="none" stroke="black" d="M586.02,-836C536.71,-836 457.03,-836 399.18,-836"/>
<polygon fill="black" stroke="black" points="399.43,-832.5 389.43,-836 399.43,-839.5 399.43,-832.5"/>
</g>
<!-- aws_lb_listener.main -->
<g id="node14" class="node">
<title>aws_lb_listener.main</title>
<polygon fill="none" stroke="black" points="1048,-1081 905.25,-1081 905.25,-1045 1048,-1045 1048,-1081"/>
<text text-anchor="middle" x="976.62" y="-1057.2" font-family="sans-serif" font-size="14.00">aws_lb_listener.main</text>
</g>
<!-- aws_lb_listener.main&#45;&gt;aws_lb.main -->
<g id="edge18" class="edge">
<title>aws_lb_listener.main&#45;&gt;aws_lb.main</title>
<path fill="none" stroke="black" d="M966.42,-1044.55C945.13,-1004.03 888.26,-907.32 810,-863 773.42,-842.28 726.07,-835.92 689.57,-834.53"/>
<polygon fill="black" stroke="black" points="689.73,-831.04 679.65,-834.28 689.55,-838.03 689.73,-831.04"/>
</g>
<!-- aws_lb_target_group.main -->
<g id="node15" class="node">
<title>aws_lb_target_group.main</title>
<polygon fill="none" stroke="black" points="414.5,-1230 238.75,-1230 238.75,-1194 414.5,-1194 414.5,-1230"/>
<text text-anchor="middle" x="326.62" y="-1206.2" font-family="sans-serif" font-size="14.00">aws_lb_target_group.main</text>
</g>
<!-- aws_lb_listener.main&#45;&gt;aws_lb_target_group.main -->
<g id="edge19" class="edge">
<title>aws_lb_listener.main&#45;&gt;aws_lb_target_group.main</title>
<path fill="none" stroke="black" d="M965.61,-1081.42C943.51,-1119.84 886.43,-1207.72 810,-1241 671.08,-1301.49 488.1,-1262.2 392.36,-1233.81"/>
<polygon fill="black" stroke="black" points="393.44,-1230.48 382.85,-1230.93 391.41,-1237.18 393.44,-1230.48"/>
</g>
<!-- aws_lb_target_group.main&#45;&gt;aws_vpc.main -->
<g id="edge20" class="edge">
<title>aws_lb_target_group.main&#45;&gt;aws_vpc.main</title>
<path fill="none" stroke="black" d="M290.94,-1193.51C251.75,-1172.62 187.84,-1138.55 144.99,-1115.72"/>
<polygon fill="black" stroke="black" points="146.66,-1112.64 136.19,-1111.02 143.37,-1118.82 146.66,-1112.64"/>
</g>
<!-- aws_main_route_table_association.main -->
<g id="node16" class="node">
<title>aws_main_route_table_association.main</title>
<polygon fill="none" stroke="black" points="1107.25,-1324 846,-1324 846,-1288 1107.25,-1288 1107.25,-1324"/>
<text text-anchor="middle" x="976.62" y="-1300.2" font-family="sans-serif" font-size="14.00">aws_main_route_table_association.main</text>
</g>
<!-- aws_route_table.main -->
<g id="node17" class="node">
<title>aws_route_table.main</title>
<polygon fill="none" stroke="black" points="706.5,-1324 557.75,-1324 557.75,-1288 706.5,-1288 706.5,-1324"/>
<text text-anchor="middle" x="632.12" y="-1300.2" font-family="sans-serif" font-size="14.00">aws_route_table.main</text>
</g>
<!-- aws_main_route_table_association.main&#45;&gt;aws_route_table.main -->
<g id="edge21" class="edge">
<title>aws_main_route_table_association.main&#45;&gt;aws_route_table.main</title>
<path fill="none" stroke="black" d="M845.65,-1306C802.94,-1306 756.58,-1306 718.09,-1306"/>
<polygon fill="black" stroke="black" points="718.45,-1302.5 708.45,-1306 718.45,-1309.5 718.45,-1302.5"/>
</g>
<!-- aws_route_table.main&#45;&gt;aws_internet_gateway.main -->
<g id="edge22" class="edge">
<title>aws_route_table.main&#45;&gt;aws_internet_gateway.main</title>
<path fill="none" stroke="black" d="M557.27,-1301.13C519.02,-1298.61 471.7,-1295.49 429.98,-1292.75"/>
<polygon fill="black" stroke="black" points="430.38,-1289.26 420.17,-1292.1 429.92,-1296.25 430.38,-1289.26"/>
</g>
<!-- aws_security_group.main&#45;&gt;aws_vpc.main -->
<g id="edge23" class="edge">
<title>aws_security_group.main&#45;&gt;aws_vpc.main</title>
<path fill="none" stroke="black" d="M248.78,-1056.43C220.47,-1063.22 188.8,-1070.82 162.02,-1077.24"/>
<polygon fill="black" stroke="black" points="161.24,-1073.83 152.33,-1079.57 162.87,-1080.64 161.24,-1073.83"/>
</g>
<!-- aws_subnet.main&#45;&gt;aws_vpc.main -->
<g id="edge24" class="edge">
<title>aws_subnet.main&#45;&gt;aws_vpc.main</title>
<path fill="none" stroke="black" d="M309.43,-854.41C270.17,-899.06 169.74,-1013.26 123.93,-1065.36"/>
<polygon fill="black" stroke="black" points="121.52,-1062.8 117.54,-1072.62 126.78,-1067.42 121.52,-1062.8"/>
</g>
<!-- aws_vpc_security_group_egress_rule.egress -->
<g id="node21" class="node">
<title>aws_vpc_security_group_egress_rule.egress</title>
<polygon fill="none" stroke="black" points="775.5,-962 488.75,-962 488.75,-926 775.5,-926 775.5,-962"/>
<text text-anchor="middle" x="632.12" y="-938.2" font-family="sans-serif" font-size="14.00">aws_vpc_security_group_egress_rule.egress</text>
</g>
<!-- aws_vpc_security_group_egress_rule.egress&#45;&gt;aws_security_group.main -->
<g id="edge25" class="edge">
<title>aws_vpc_security_group_egress_rule.egress&#45;&gt;aws_security_group.main</title>
<path fill="none" stroke="black" d="M488.7,-961.45C476.93,-964.18 465.31,-967.35 454.25,-971 422.7,-981.42 389.6,-999.21 365.15,-1013.84"/>
<polygon fill="black" stroke="black" points="363.58,-1010.7 356.86,-1018.9 367.22,-1016.68 363.58,-1010.7"/>
</g>
<!-- aws_vpc_security_group_ingress_rule.https -->
<g id="node22" class="node">
<title>aws_vpc_security_group_ingress_rule.https</title>
<polygon fill="none" stroke="black" points="771.38,-1124 492.88,-1124 492.88,-1088 771.38,-1088 771.38,-1124"/>
<text text-anchor="middle" x="632.12" y="-1100.2" font-family="sans-serif" font-size="14.00">aws_vpc_security_group_ingress_rule.https</text>
</g>
<!-- aws_vpc_security_group_ingress_rule.https&#45;&gt;data.http.myip -->
<g id="edge26" class="edge">
<title>aws_vpc_security_group_ingress_rule.https&#45;&gt;data.http.myip</title>
<path fill="none" stroke="black" d="M492.7,-1111.93C456.24,-1113.49 418.75,-1115.1 388.72,-1116.38"/>
<polygon fill="black" stroke="black" points="388.96,-1112.87 379.11,-1116.79 389.26,-1119.86 388.96,-1112.87"/>
</g>
<!-- aws_vpc_security_group_ingress_rule.https&#45;&gt;aws_security_group.main -->
<g id="edge27" class="edge">
<title>aws_vpc_security_group_ingress_rule.https&#45;&gt;aws_security_group.main</title>
<path fill="none" stroke="black" d="M495.02,-1087.5C481.19,-1084.94 467.4,-1082.11 454.25,-1079 432.71,-1073.9 409.56,-1066.88 389.03,-1060.09"/>
<polygon fill="black" stroke="black" points="390.26,-1056.81 379.66,-1056.94 388.03,-1063.45 390.26,-1056.81"/>
</g>
<!-- aws_vpc_security_group_ingress_rule.icmp -->
<g id="node23" class="node">
<title>aws_vpc_security_group_ingress_rule.icmp</title>
<polygon fill="none" stroke="black" points="771.38,-1070 492.88,-1070 492.88,-1034 771.38,-1034 771.38,-1070"/>
<text text-anchor="middle" x="632.12" y="-1046.2" font-family="sans-serif" font-size="14.00">aws_vpc_security_group_ingress_rule.icmp</text>
</g>
<!-- aws_vpc_security_group_ingress_rule.icmp&#45;&gt;data.http.myip -->
<g id="edge28" class="edge">
<title>aws_vpc_security_group_ingress_rule.icmp&#45;&gt;data.http.myip</title>
<path fill="none" stroke="black" d="M495.99,-1070.42C481.84,-1073.01 467.71,-1075.87 454.25,-1079 432.55,-1084.05 409.19,-1090.99 388.52,-1097.67"/>
<polygon fill="black" stroke="black" points="387.5,-1094.32 379.09,-1100.76 389.69,-1100.97 387.5,-1094.32"/>
</g>
<!-- aws_vpc_security_group_ingress_rule.icmp&#45;&gt;aws_security_group.main -->
<g id="edge29" class="edge">
<title>aws_vpc_security_group_ingress_rule.icmp&#45;&gt;aws_security_group.main</title>
<path fill="none" stroke="black" d="M492.7,-1045.61C469.13,-1044.53 445.14,-1043.42 423.01,-1042.4"/>
<polygon fill="black" stroke="black" points="423.28,-1038.91 413.13,-1041.94 422.95,-1045.9 423.28,-1038.91"/>
</g>
<!-- aws_vpc_security_group_ingress_rule.k8s_api -->
<g id="node24" class="node">
<title>aws_vpc_security_group_ingress_rule.k8s_api</title>
<polygon fill="none" stroke="black" points="780,-1232 484.25,-1232 484.25,-1196 780,-1196 780,-1232"/>
<text text-anchor="middle" x="632.12" y="-1208.2" font-family="sans-serif" font-size="14.00">aws_vpc_security_group_ingress_rule.k8s_api</text>
</g>
<!-- aws_vpc_security_group_ingress_rule.k8s_api&#45;&gt;data.http.myip -->
<g id="edge30" class="edge">
<title>aws_vpc_security_group_ingress_rule.k8s_api&#45;&gt;data.http.myip</title>
<path fill="none" stroke="black" d="M483.98,-1195.5C473.82,-1193.02 463.83,-1190.2 454.25,-1187 422.42,-1176.38 389.09,-1158.15 364.62,-1143.24"/>
<polygon fill="black" stroke="black" points="366.67,-1140.39 356.32,-1138.09 362.98,-1146.34 366.67,-1140.39"/>
</g>
<!-- aws_vpc_security_group_ingress_rule.k8s_api&#45;&gt;aws_security_group.main -->
<g id="edge31" class="edge">
<title>aws_vpc_security_group_ingress_rule.k8s_api&#45;&gt;aws_security_group.main</title>
<path fill="none" stroke="black" d="M483.89,-1204.4C473.24,-1199.93 463.19,-1194.23 454.25,-1187 419.14,-1158.61 447.26,-1126.6 418.25,-1092 408.12,-1079.92 394.55,-1069.85 381,-1061.82"/>
<polygon fill="black" stroke="black" points="382.95,-1058.9 372.51,-1057.06 379.53,-1065 382.95,-1058.9"/>
</g>
<!-- aws_vpc_security_group_ingress_rule.pod_network_cidr -->
<g id="node25" class="node">
<title>aws_vpc_security_group_ingress_rule.pod_network_cidr</title>
<polygon fill="none" stroke="black" points="810,-908 454.25,-908 454.25,-872 810,-872 810,-908"/>
<text text-anchor="middle" x="632.12" y="-884.2" font-family="sans-serif" font-size="14.00">aws_vpc_security_group_ingress_rule.pod_network_cidr</text>
</g>
<!-- aws_vpc_security_group_ingress_rule.pod_network_cidr&#45;&gt;aws_security_group.main -->
<g id="edge32" class="edge">
<title>aws_vpc_security_group_ingress_rule.pod_network_cidr&#45;&gt;aws_security_group.main</title>
<path fill="none" stroke="black" d="M474.66,-908.39C467.64,-910.92 460.8,-913.78 454.25,-917 409.63,-938.94 370.35,-982.22 347.79,-1010.63"/>
<polygon fill="black" stroke="black" points="345.1,-1008.39 341.73,-1018.44 350.63,-1012.69 345.1,-1008.39"/>
</g>
<!-- aws_vpc_security_group_ingress_rule.ssh -->
<g id="node26" class="node">
<title>aws_vpc_security_group_ingress_rule.ssh</title>
<polygon fill="none" stroke="black" points="767.25,-1178 497,-1178 497,-1142 767.25,-1142 767.25,-1178"/>
<text text-anchor="middle" x="632.12" y="-1154.2" font-family="sans-serif" font-size="14.00">aws_vpc_security_group_ingress_rule.ssh</text>
</g>
<!-- aws_vpc_security_group_ingress_rule.ssh&#45;&gt;data.http.myip -->
<g id="edge33" class="edge">
<title>aws_vpc_security_group_ingress_rule.ssh&#45;&gt;data.http.myip</title>
<path fill="none" stroke="black" d="M496.68,-1141.84C458.98,-1136.74 419.83,-1131.46 388.71,-1127.25"/>
<polygon fill="black" stroke="black" points="389.51,-1123.83 379.13,-1125.96 388.57,-1130.76 389.51,-1123.83"/>
</g>
<!-- aws_vpc_security_group_ingress_rule.ssh&#45;&gt;aws_security_group.main -->
<g id="edge34" class="edge">
<title>aws_vpc_security_group_ingress_rule.ssh&#45;&gt;aws_security_group.main</title>
<path fill="none" stroke="black" d="M496.94,-1149.8C482.02,-1145.7 467.47,-1140.23 454.25,-1133 432.98,-1121.36 436.89,-1107.51 418.25,-1092 404.86,-1080.87 388.92,-1070.56 374.17,-1061.99"/>
<polygon fill="black" stroke="black" points="375.94,-1058.97 365.51,-1057.1 372.49,-1065.06 375.94,-1058.97"/>
</g>
<!-- aws_vpc_security_group_ingress_rule.vpc_cidr -->
<g id="node27" class="node">
<title>aws_vpc_security_group_ingress_rule.vpc_cidr</title>
<polygon fill="none" stroke="black" points="781.88,-1016 482.38,-1016 482.38,-980 781.88,-980 781.88,-1016"/>
<text text-anchor="middle" x="632.12" y="-992.2" font-family="sans-serif" font-size="14.00">aws_vpc_security_group_ingress_rule.vpc_cidr</text>
</g>
<!-- aws_vpc_security_group_ingress_rule.vpc_cidr&#45;&gt;aws_security_group.main -->
<g id="edge35" class="edge">
<title>aws_vpc_security_group_ingress_rule.vpc_cidr&#45;&gt;aws_security_group.main</title>
<path fill="none" stroke="black" d="M490.92,-1016.48C467.91,-1019.51 444.54,-1022.59 422.95,-1025.44"/>
<polygon fill="black" stroke="black" points="422.79,-1021.93 413.33,-1026.7 423.7,-1028.87 422.79,-1021.93"/>
</g>
<!-- local_file.key_pair -->
<g id="node28" class="node">
<title>local_file.key_pair</title>
<polygon fill="none" stroke="black" points="693.75,-692 570.5,-692 570.5,-656 693.75,-656 693.75,-692"/>
<text text-anchor="middle" x="632.12" y="-668.2" font-family="sans-serif" font-size="14.00">local_file.key_pair</text>
</g>
<!-- local_file.key_pair&#45;&gt;aws_key_pair.key_pair -->
<g id="edge36" class="edge">
<title>local_file.key_pair&#45;&gt;aws_key_pair.key_pair</title>
<path fill="none" stroke="black" d="M570.4,-682.37C536.2,-687.31 492.75,-693.96 454.25,-701 441.38,-703.35 427.82,-706.03 414.54,-708.77"/>
<polygon fill="black" stroke="black" points="414.04,-705.29 404.96,-710.76 415.46,-712.15 414.04,-705.29"/>
</g>
<!-- null_resource.controller_provision -->
<g id="node29" class="node">
<title>null_resource.controller_provision</title>
<polygon fill="none" stroke="black" points="1085.5,-553 867.75,-553 867.75,-517 1085.5,-517 1085.5,-553"/>
<text text-anchor="middle" x="976.62" y="-529.2" font-family="sans-serif" font-size="14.00">null_resource.controller_provision</text>
</g>
<!-- null_resource.controller_provision&#45;&gt;aws_instance.controller -->
<g id="edge37" class="edge">
<title>null_resource.controller_provision&#45;&gt;aws_instance.controller</title>
<path fill="none" stroke="black" d="M963.39,-553.48C938.94,-588.77 880.27,-665.39 810,-701 783.1,-714.63 751.16,-721.81 721.87,-725.46"/>
<polygon fill="black" stroke="black" points="721.85,-721.94 712.3,-726.53 722.62,-728.9 721.85,-721.94"/>
</g>
<!-- null_resource.create_certbot_cert_secret -->
<g id="node30" class="node">
<title>null_resource.create_certbot_cert_secret</title>
<polygon fill="none" stroke="black" points="2054.88,-414 1793.62,-414 1793.62,-378 2054.88,-378 2054.88,-414"/>
<text text-anchor="middle" x="1924.25" y="-390.2" font-family="sans-serif" font-size="14.00">null_resource.create_certbot_cert_secret</text>
</g>
<!-- null_resource.install_certbot -->
<g id="node38" class="node">
<title>null_resource.install_certbot</title>
<polygon fill="none" stroke="black" points="1695.75,-414 1511.75,-414 1511.75,-378 1695.75,-378 1695.75,-414"/>
<text text-anchor="middle" x="1603.75" y="-390.2" font-family="sans-serif" font-size="14.00">null_resource.install_certbot</text>
</g>
<!-- null_resource.create_certbot_cert_secret&#45;&gt;null_resource.install_certbot -->
<g id="edge38" class="edge">
<title>null_resource.create_certbot_cert_secret&#45;&gt;null_resource.install_certbot</title>
<path fill="none" stroke="black" d="M1793.24,-396C1764.52,-396 1734.48,-396 1707.04,-396"/>
<polygon fill="black" stroke="black" points="1707.37,-392.5 1697.37,-396 1707.37,-399.5 1707.37,-392.5"/>
</g>
<!-- null_resource.get_kubeconfig -->
<g id="node34" class="node">
<title>null_resource.get_kubeconfig</title>
<polygon fill="none" stroke="black" points="1379.38,-414 1187.12,-414 1187.12,-378 1379.38,-378 1379.38,-414"/>
<text text-anchor="middle" x="1283.25" y="-390.2" font-family="sans-serif" font-size="14.00">null_resource.get_kubeconfig</text>
</g>
<!-- null_resource.create_dashboard_user&#45;&gt;null_resource.get_kubeconfig -->
<g id="edge39" class="edge">
<title>null_resource.create_dashboard_user&#45;&gt;null_resource.get_kubeconfig</title>
<path fill="none" stroke="black" d="M1481.72,-595.17C1473.92,-592.29 1466.35,-588.92 1459.25,-585 1387.84,-545.53 1329.33,-466.32 1301.6,-424.06"/>
<polygon fill="black" stroke="black" points="1304.56,-422.19 1296.2,-415.68 1298.67,-425.98 1304.56,-422.19"/>
</g>
<!-- null_resource.create_ingress&#45;&gt;null_resource.create_certbot_cert_secret -->
<g id="edge40" class="edge">
<title>null_resource.create_ingress&#45;&gt;null_resource.create_certbot_cert_secret</title>
<path fill="none" stroke="black" d="M2099.92,-396C2089.03,-396 2077.75,-396 2066.4,-396"/>
<polygon fill="black" stroke="black" points="2066.55,-392.5 2056.55,-396 2066.55,-399.5 2066.55,-392.5"/>
</g>
<!-- null_resource.kubeadm_init -->
<g id="node47" class="node">
<title>null_resource.kubeadm_init</title>
<polygon fill="none" stroke="black" points="1067.5,-746 885.75,-746 885.75,-710 1067.5,-710 1067.5,-746"/>
<text text-anchor="middle" x="976.62" y="-722.2" font-family="sans-serif" font-size="14.00">null_resource.kubeadm_init</text>
</g>
<!-- null_resource.get_kubeadm_join_command&#45;&gt;null_resource.kubeadm_init -->
<g id="edge41" class="edge">
<title>null_resource.get_kubeadm_join_command&#45;&gt;null_resource.kubeadm_init</title>
<path fill="none" stroke="black" d="M1160.1,-755.56C1133.28,-751.51 1105.16,-747.26 1079.25,-743.35"/>
<polygon fill="black" stroke="black" points="1079.82,-739.89 1069.4,-741.86 1078.77,-746.81 1079.82,-739.89"/>
</g>
<!-- null_resource.get_kubeconfig&#45;&gt;null_resource.controller_provision -->
<g id="edge42" class="edge">
<title>null_resource.get_kubeconfig&#45;&gt;null_resource.controller_provision</title>
<path fill="none" stroke="black" d="M1241.8,-414.46C1186.68,-439.61 1088.01,-484.63 1028.11,-511.96"/>
<polygon fill="black" stroke="black" points="1026.78,-508.72 1019.14,-516.06 1029.69,-515.09 1026.78,-508.72"/>
</g>
<!-- null_resource.install_argocd&#45;&gt;null_resource.get_kubeconfig -->
<g id="edge43" class="edge">
<title>null_resource.install_argocd&#45;&gt;null_resource.get_kubeconfig</title>
<path fill="none" stroke="black" d="M1511.59,-547.53C1493.77,-543.64 1475.56,-538.31 1459.25,-531 1399.47,-504.19 1341.58,-453.09 1309.66,-422.03"/>
<polygon fill="black" stroke="black" points="1312.39,-419.81 1302.82,-415.27 1307.48,-424.79 1312.39,-419.81"/>
</g>
<!-- null_resource.install_calico -->
<g id="node36" class="node">
<title>null_resource.install_calico</title>
<polygon fill="none" stroke="black" points="1692.38,-522 1515.12,-522 1515.12,-486 1692.38,-486 1692.38,-522"/>
<text text-anchor="middle" x="1603.75" y="-498.2" font-family="sans-serif" font-size="14.00">null_resource.install_calico</text>
</g>
<!-- null_resource.install_calico&#45;&gt;null_resource.get_kubeconfig -->
<g id="edge44" class="edge">
<title>null_resource.install_calico&#45;&gt;null_resource.get_kubeconfig</title>
<path fill="none" stroke="black" d="M1515,-491.06C1496.38,-487.32 1477,-482.68 1459.25,-477 1412.53,-462.05 1361.95,-437.67 1327.25,-419.56"/>
<polygon fill="black" stroke="black" points="1329.27,-416.67 1318.79,-415.1 1326.01,-422.86 1329.27,-416.67"/>
</g>
<!-- null_resource.install_cert_manager -->
<g id="node37" class="node">
<title>null_resource.install_cert_manager</title>
<polygon fill="none" stroke="black" points="1717.12,-468 1490.38,-468 1490.38,-432 1717.12,-432 1717.12,-468"/>
<text text-anchor="middle" x="1603.75" y="-444.2" font-family="sans-serif" font-size="14.00">null_resource.install_cert_manager</text>
</g>
<!-- null_resource.install_cert_manager&#45;&gt;null_resource.get_kubeconfig -->
<g id="edge45" class="edge">
<title>null_resource.install_cert_manager&#45;&gt;null_resource.get_kubeconfig</title>
<path fill="none" stroke="black" d="M1494.03,-431.57C1460.68,-425.91 1424.03,-419.7 1390.82,-414.07"/>
<polygon fill="black" stroke="black" points="1391.64,-410.66 1381.19,-412.44 1390.47,-417.56 1391.64,-410.66"/>
</g>
<!-- null_resource.install_certbot&#45;&gt;null_resource.get_kubeconfig -->
<g id="edge46" class="edge">
<title>null_resource.install_certbot&#45;&gt;null_resource.get_kubeconfig</title>
<path fill="none" stroke="black" d="M1511.48,-396C1473.92,-396 1430.15,-396 1391.11,-396"/>
<polygon fill="black" stroke="black" points="1391.21,-392.5 1381.21,-396 1391.21,-399.5 1391.21,-392.5"/>
</g>
<!-- null_resource.install_dashboard -->
<g id="node39" class="node">
<title>null_resource.install_dashboard</title>
<polygon fill="none" stroke="black" points="1707,-360 1500.5,-360 1500.5,-324 1707,-324 1707,-360"/>
<text text-anchor="middle" x="1603.75" y="-336.2" font-family="sans-serif" font-size="14.00">null_resource.install_dashboard</text>
</g>
<!-- null_resource.install_dashboard&#45;&gt;null_resource.get_kubeconfig -->
<g id="edge47" class="edge">
<title>null_resource.install_dashboard&#45;&gt;null_resource.get_kubeconfig</title>
<path fill="none" stroke="black" d="M1500.22,-359.38C1465.35,-365.3 1426.31,-371.91 1391.11,-377.88"/>
<polygon fill="black" stroke="black" points="1390.59,-374.42 1381.32,-379.54 1391.76,-381.32 1390.59,-374.42"/>
</g>
<!-- null_resource.install_efk&#45;&gt;null_resource.get_kubeconfig -->
<g id="edge48" class="edge">
<title>null_resource.install_efk&#45;&gt;null_resource.get_kubeconfig</title>
<path fill="none" stroke="black" d="M1522.93,-299.4C1501.95,-303.37 1479.53,-308.51 1459.25,-315 1412.53,-329.95 1361.95,-354.33 1327.25,-372.44"/>
<polygon fill="black" stroke="black" points="1326.01,-369.14 1318.79,-376.9 1329.27,-375.33 1326.01,-369.14"/>
</g>
<!-- null_resource.install_grafana&#45;&gt;null_resource.get_kubeconfig -->
<g id="edge49" class="edge">
<title>null_resource.install_grafana&#45;&gt;null_resource.get_kubeconfig</title>
<path fill="none" stroke="black" d="M1509.31,-244.97C1492.22,-248.81 1474.86,-254 1459.25,-261 1399.47,-287.81 1341.58,-338.91 1309.66,-369.97"/>
<polygon fill="black" stroke="black" points="1307.48,-367.21 1302.82,-376.73 1312.39,-372.19 1307.48,-367.21"/>
</g>
<!-- null_resource.install_helm -->
<g id="node42" class="node">
<title>null_resource.install_helm</title>
<polygon fill="none" stroke="black" points="1690.12,-198 1517.38,-198 1517.38,-162 1690.12,-162 1690.12,-198"/>
<text text-anchor="middle" x="1603.75" y="-174.2" font-family="sans-serif" font-size="14.00">null_resource.install_helm</text>
</g>
<!-- null_resource.install_helm&#45;&gt;null_resource.get_kubeconfig -->
<g id="edge50" class="edge">
<title>null_resource.install_helm&#45;&gt;null_resource.get_kubeconfig</title>
<path fill="none" stroke="black" d="M1516.95,-186.98C1497.15,-191.03 1476.78,-197.31 1459.25,-207 1387.84,-246.47 1329.33,-325.68 1301.6,-367.94"/>
<polygon fill="black" stroke="black" points="1298.67,-366.02 1296.2,-376.32 1304.56,-369.81 1298.67,-366.02"/>
</g>
<!-- null_resource.install_lets_encrypt -->
<g id="node43" class="node">
<title>null_resource.install_lets_encrypt</title>
<polygon fill="none" stroke="black" points="1711.5,-144 1496,-144 1496,-108 1711.5,-108 1711.5,-144"/>
<text text-anchor="middle" x="1603.75" y="-120.2" font-family="sans-serif" font-size="14.00">null_resource.install_lets_encrypt</text>
</g>
<!-- null_resource.install_lets_encrypt&#45;&gt;null_resource.get_kubeconfig -->
<g id="edge51" class="edge">
<title>null_resource.install_lets_encrypt&#45;&gt;null_resource.get_kubeconfig</title>
<path fill="none" stroke="black" d="M1495.8,-136.64C1482.9,-140.61 1470.37,-145.93 1459.25,-153 1375.46,-206.27 1319.29,-315.31 1296.17,-367.25"/>
<polygon fill="black" stroke="black" points="1292.99,-365.76 1292.21,-376.33 1299.41,-368.56 1292.99,-365.76"/>
</g>
<!-- null_resource.install_metrics_server -->
<g id="node44" class="node">
<title>null_resource.install_metrics_server</title>
<polygon fill="none" stroke="black" points="1719.75,-90 1487.75,-90 1487.75,-54 1719.75,-54 1719.75,-90"/>
<text text-anchor="middle" x="1603.75" y="-66.2" font-family="sans-serif" font-size="14.00">null_resource.install_metrics_server</text>
</g>
<!-- null_resource.install_metrics_server&#45;&gt;null_resource.get_kubeconfig -->
<g id="edge52" class="edge">
<title>null_resource.install_metrics_server&#45;&gt;null_resource.get_kubeconfig</title>
<path fill="none" stroke="black" d="M1487.47,-84.37C1477.45,-88.16 1467.86,-92.95 1459.25,-99 1362.62,-166.85 1310.99,-306.51 1292.39,-367"/>
<polygon fill="black" stroke="black" points="1289.15,-365.64 1289.64,-376.22 1295.86,-367.64 1289.15,-365.64"/>
</g>
<!-- null_resource.install_nginx_ingress_controller -->
<g id="node45" class="node">
<title>null_resource.install_nginx_ingress_controller</title>
<polygon fill="none" stroke="black" points="1748.25,-36 1459.25,-36 1459.25,0 1748.25,0 1748.25,-36"/>
<text text-anchor="middle" x="1603.75" y="-12.2" font-family="sans-serif" font-size="14.00">null_resource.install_nginx_ingress_controller</text>
</g>
<!-- null_resource.install_nginx_ingress_controller&#45;&gt;null_resource.get_kubeconfig -->
<g id="edge53" class="edge">
<title>null_resource.install_nginx_ingress_controller&#45;&gt;null_resource.get_kubeconfig</title>
<path fill="none" stroke="black" d="M1472.73,-36.37C1468.01,-38.93 1463.5,-41.79 1459.25,-45 1349.58,-127.88 1304.05,-298.32 1289.7,-366.68"/>
<polygon fill="black" stroke="black" points="1286.3,-365.87 1287.75,-376.37 1293.16,-367.26 1286.3,-365.87"/>
</g>
<!-- null_resource.install_prometheus -->
<g id="node46" class="node">
<title>null_resource.install_prometheus</title>
<polygon fill="none" stroke="black" points="1711.12,-738 1496.38,-738 1496.38,-702 1711.12,-702 1711.12,-738"/>
<text text-anchor="middle" x="1603.75" y="-714.2" font-family="sans-serif" font-size="14.00">null_resource.install_prometheus</text>
</g>
<!-- null_resource.install_prometheus&#45;&gt;null_resource.get_kubeconfig -->
<g id="edge54" class="edge">
<title>null_resource.install_prometheus&#45;&gt;null_resource.get_kubeconfig</title>
<path fill="none" stroke="black" d="M1495.9,-710.56C1482.84,-706.4 1470.25,-700.72 1459.25,-693 1362.62,-625.15 1310.99,-485.49 1292.39,-425"/>
<polygon fill="black" stroke="black" points="1295.86,-424.36 1289.64,-415.78 1289.15,-426.36 1295.86,-424.36"/>
</g>
<!-- null_resource.kubeadm_init&#45;&gt;aws_instance.controller -->
<g id="edge55" class="edge">
<title>null_resource.kubeadm_init&#45;&gt;aws_instance.controller</title>
<path fill="none" stroke="black" d="M885.64,-728C835.26,-728 772.66,-728 722.39,-728"/>
<polygon fill="black" stroke="black" points="722.4,-724.5 712.4,-728 722.4,-731.5 722.4,-724.5"/>
</g>
<!-- null_resource.kubeadm_join_worker -->
<g id="node48" class="node">
<title>null_resource.kubeadm_join_worker</title>
<polygon fill="none" stroke="black" points="1720.5,-846 1487,-846 1487,-810 1720.5,-810 1720.5,-846"/>
<text text-anchor="middle" x="1603.75" y="-822.2" font-family="sans-serif" font-size="14.00">null_resource.kubeadm_join_worker</text>
</g>
<!-- null_resource.kubeadm_join_worker&#45;&gt;aws_instance.worker -->
<g id="edge56" class="edge">
<title>null_resource.kubeadm_join_worker&#45;&gt;aws_instance.worker</title>
<path fill="none" stroke="black" d="M1486.54,-828.72C1337.83,-828.81 1072.38,-826.15 846,-809 802.46,-805.7 754.17,-799.76 714.6,-794.29"/>
<polygon fill="black" stroke="black" points="715.31,-790.86 704.92,-792.94 714.33,-797.79 715.31,-790.86"/>
</g>
<!-- null_resource.kubeadm_join_worker&#45;&gt;null_resource.get_kubeadm_join_command -->
<g id="edge57" class="edge">
<title>null_resource.kubeadm_join_worker&#45;&gt;null_resource.get_kubeadm_join_command</title>
<path fill="none" stroke="black" d="M1494.03,-809.57C1465.19,-804.68 1433.88,-799.37 1404.46,-794.38"/>
<polygon fill="black" stroke="black" points="1405.23,-790.96 1394.78,-792.74 1404.06,-797.86 1405.23,-790.96"/>
</g>
<!-- null_resource.output_ingress -->
<g id="node49" class="node">
<title>null_resource.output_ingress</title>
<polygon fill="none" stroke="black" points="2514.75,-387 2325.5,-387 2325.5,-351 2514.75,-351 2514.75,-387"/>
<text text-anchor="middle" x="2420.12" y="-363.2" font-family="sans-serif" font-size="14.00">null_resource.output_ingress</text>
</g>
<!-- null_resource.output_ingress&#45;&gt;null_resource.create_ingress -->
<g id="edge58" class="edge">
<title>null_resource.output_ingress&#45;&gt;null_resource.create_ingress</title>
<path fill="none" stroke="black" d="M2325.09,-380.37C2317.16,-381.33 2309.1,-382.31 2301.08,-383.28"/>
<polygon fill="black" stroke="black" points="2300.81,-379.78 2291.3,-384.46 2301.65,-386.73 2300.81,-379.78"/>
</g>
<!-- null_resource.output_kubeconfig -->
<g id="node50" class="node">
<title>null_resource.output_kubeconfig</title>
<polygon fill="none" stroke="black" points="1709.25,-684 1498.25,-684 1498.25,-648 1709.25,-648 1709.25,-684"/>
<text text-anchor="middle" x="1603.75" y="-660.2" font-family="sans-serif" font-size="14.00">null_resource.output_kubeconfig</text>
</g>
<!-- null_resource.output_kubeconfig&#45;&gt;null_resource.get_kubeconfig -->
<g id="edge59" class="edge">
<title>null_resource.output_kubeconfig&#45;&gt;null_resource.get_kubeconfig</title>
<path fill="none" stroke="black" d="M1498.03,-656.04C1484.35,-651.99 1471.02,-646.48 1459.25,-639 1375.46,-585.73 1319.29,-476.69 1296.17,-424.75"/>
<polygon fill="black" stroke="black" points="1299.41,-423.44 1292.21,-415.67 1292.99,-426.24 1299.41,-423.44"/>
</g>
<!-- null_resource.worker_provision -->
<g id="node51" class="node">
<title>null_resource.worker_provision</title>
<polygon fill="none" stroke="black" points="1078,-800 875.25,-800 875.25,-764 1078,-764 1078,-800"/>
<text text-anchor="middle" x="976.62" y="-776.2" font-family="sans-serif" font-size="14.00">null_resource.worker_provision</text>
</g>
<!-- null_resource.worker_provision&#45;&gt;aws_instance.controller -->
<g id="edge60" class="edge">
<title>null_resource.worker_provision&#45;&gt;aws_instance.controller</title>
<path fill="none" stroke="black" d="M874.93,-765.42C853.5,-761.94 831.01,-758.32 810,-755 781.42,-750.49 750.23,-745.69 722.1,-741.4"/>
<polygon fill="black" stroke="black" points="722.99,-738 712.57,-739.95 721.93,-744.92 722.99,-738"/>
</g>
<!-- null_resource.worker_provision&#45;&gt;aws_instance.worker -->
<g id="edge61" class="edge">
<title>null_resource.worker_provision&#45;&gt;aws_instance.worker</title>
<path fill="none" stroke="black" d="M875.18,-782C824.1,-782 762.83,-782 714.71,-782"/>
<polygon fill="black" stroke="black" points="714.92,-778.5 704.92,-782 714.92,-785.5 714.92,-778.5"/>
</g>
</g>
</svg>
